<svg fill="#2f327d" xmlns="http://www.w3.org/2000/svg"  viewBox="0 0 50 50" width="50px" height="50px"><path d="M 9.9082031 6 C 9.3992031 6 8.9720156 6.3826719 8.9160156 6.8886719 L 7.8964844 15.859375 C 7.8644844 16.142375 7.9555312 16.425672 8.1445312 16.638672 C 8.3335312 16.851672 8.605625 16.972656 8.890625 16.972656 L 43.556641 16.972656 C 44.064641 16.972656 44.492828 16.591938 44.548828 16.085938 L 45.566406 7.1113281 C 45.599406 6.8293281 45.510312 6.5459844 45.320312 6.3339844 C 45.131312 6.1209844 44.859219 6 44.574219 6 L 9.9082031 6 z M 8.4707031 21 C 7.9617031 21 7.5325625 21.382672 7.4765625 21.888672 L 5.0058594 43.916016 C 4.9748594 44.199016 5.0658594 44.480359 5.2558594 44.693359 C 5.4448594 44.905359 5.716 45.027344 6 45.027344 L 40.667969 45.027344 C 41.171969 45.027344 41.596156 44.652344 41.660156 44.152344 L 42.681641 36.126953 C 42.717641 35.842953 42.629453 35.555844 42.439453 35.339844 C 42.250453 35.123844 41.976453 35 41.689453 35 L 21.150391 35 L 21.634766 31 L 42.115234 31 C 42.618234 31 43.042422 30.625953 43.107422 30.126953 L 44.130859 22.126953 C 44.166859 21.841953 44.077672 21.555844 43.888672 21.339844 C 43.698672 21.124844 43.425672 21 43.138672 21 L 8.4707031 21 z"/></svg>

